<?xml version="1.0" standalone="no"?>
<!DOCTYPE svg PUBLIC "-//W3C//DTD SVG 20010904//EN"
 "http://www.w3.org/TR/2001/REC-SVG-20010904/DTD/svg10.dtd">
<svg version="1.0" xmlns="http://www.w3.org/2000/svg"
 width="670.000000pt" height="376.000000pt" viewBox="0 0 670.000000 376.000000"
 preserveAspectRatio="xMidYMid meet">

<g transform="translate(0.000000,376.000000) scale(0.100000,-0.100000)"
fill="#000000" stroke="none">
<path d="M0 1880 l0 -1880 3310 0 c2200 0 3310 3 3310 10 0 6 -4 10 -8 10 -15
0 -42 70 -42 108 0 54 37 112 87 136 l42 21 1 1738 0 1737 -3350 0 -3350 0 0
-1880z m3943 1691 c154 -31 273 -72 422 -145 480 -236 810 -669 919 -1207 117
-575 -110 -1211 -569 -1597 -229 -193 -482 -314 -780 -375 -146 -29 -469 -31
-610 -4 -173 35 -297 77 -450 152 -183 91 -307 178 -440 310 -197 194 -338
419 -419 667 -62 191 -86 342 -86 540 0 572 283 1097 760 1410 215 142 422
221 685 263 134 21 428 14 568 -14z m-3278 -1095 c31 -46 -24 -103 -63 -64
-17 17 -15 48 5 70 22 24 39 23 58 -6z m4957 -2011 c0 -5 -5 -11 -11 -13 -6
-2 -11 4 -11 13 0 9 5 15 11 13 6 -2 11 -8 11 -13z"/>
<path d="M3445 3334 c-262 -39 -482 -128 -679 -276 -301 -225 -505 -563 -561
-928 -19 -123 -19 -330 0 -450 32 -198 121 -419 237 -588 75 -108 233 -269
339 -344 272 -192 555 -276 893 -265 239 8 362 40 591 154 143 72 195 106 300
197 215 186 372 443 445 726 44 170 50 461 15 637 -76 368 -306 706 -626 916
-130 86 -330 168 -494 203 -77 16 -387 28 -460 18z m343 -590 c399 -82 682
-428 682 -835 0 -350 -213 -661 -543 -793 -347 -138 -777 -13 -992 289 -104
146 -154 288 -162 466 -12 244 69 459 237 630 132 135 297 221 480 252 63 11
227 6 298 -9z m285 -1821 c-7 -2 -19 -2 -25 0 -7 3 -2 5 12 5 14 0 19 -2 13
-5z m7 -28 c0 -8 -9 -15 -20 -15 -11 0 -20 7 -20 15 0 8 9 15 20 15 11 0 20
-7 20 -15z"/>
<path d="M3450 1986 l0 -495 108 -35 107 -35 3 431 c1 298 6 435 13 445 16 18
43 16 62 -5 15 -16 17 -46 17 -209 l0 -191 31 -11 c46 -16 107 -13 139 6 15 9
39 35 52 57 20 36 23 54 22 141 0 83 -4 108 -23 148 -46 94 -140 147 -378 212
-69 19 -132 35 -140 35 -11 0 -13 -90 -13 -494z"/>
<path d="M3200 1812 c-210 -76 -251 -97 -264 -135 -8 -22 -6 -31 14 -52 47
-50 244 -92 378 -80 l72 7 0 59 0 59 -66 -25 c-76 -29 -174 -34 -193 -11 -15
18 3 29 152 82 l107 38 0 63 c0 35 -3 63 -7 62 -5 0 -91 -30 -193 -67z"/>
<path d="M3890 1819 c-41 -4 -97 -14 -123 -21 l-49 -14 -4 -49 c-7 -90 -11
-89 147 -34 146 51 202 59 235 34 18 -14 18 -16 2 -28 -9 -7 -98 -42 -197 -77
l-181 -64 0 -63 c0 -35 2 -63 4 -63 2 0 95 33 207 74 112 40 228 82 258 92 29
10 69 33 89 49 29 26 34 36 29 57 -18 71 -233 126 -417 107z"/>
</g>
</svg>
