<svg fill="none" height="24" viewBox="0 0 24 24" width="24" xmlns="http://www.w3.org/2000/svg"><path clip-rule="evenodd" d="m18 2h-12c-2.20914 0-4 1.79086-4 4v12c0 2.2091 1.79086 4 4 4h12c2.2091 0 4-1.7909 4-4v-12c0-2.20914-1.7909-4-4-4zm-8.50545 12.4362c-.30965-.2717-.78101-.2428-1.0551.0655-.27519.3096-.2473.7837.06229 1.0589l.27505.2113c.16233.113.39524.2587.69289.403.59532.2886 1.45712.5751 2.53032.5751 1.0733 0 1.935-.2865 2.5303-.5751.2977-.1443.5306-.29.6929-.403.0813-.0565.1453-.1051.1913-.1417l.0838-.0696c.3096-.2752.3375-.7493.0623-1.0589-.2741-.3083-.7455-.3372-1.0551-.0655l-.1389.1044c-.1072.0746-.2727.1789-.4907.2845-.4359.2114-1.0741.4249-1.8759.4249-.8017 0-1.44-.2135-1.8759-.4249-.21799-.1056-.38352-.2099-.49072-.2845zm7.50545-4.4362c0 .5523-.4477 1-1 1s-1-.4477-1-1c0-.55228.4477-1 1-1s1 .44772 1 1zm-9 1c.55228 0 1-.4477 1-1 0-.55228-.44772-1-1-1s-1 .44772-1 1c0 .5523.44772 1 1 1z" fill="#28303f" fill-rule="evenodd"/></svg>